<svg width="84" height="22" viewBox="0 0 84 22" fill="none" xmlns="http://www.w3.org/2000/svg">
<g clip-path="url(#clip0_24_1888)">
<path d="M10.462 20.9202C6.96517 20.8409 3.89229 19.7301 1.32269 17.4291C0.448498 16.6357 0.342535 15.6307 1.03129 14.8373C1.74654 14.0174 2.83266 13.9909 3.73334 14.8108C7.57448 18.249 13.4024 18.249 17.1906 14.7579C17.8794 14.0439 19.0185 14.0439 19.7337 14.7315C19.7602 14.7579 19.7867 14.7844 19.7867 14.7844C20.5019 15.5513 20.4489 16.6093 19.6012 17.3762C17.0316 19.7301 13.9587 20.8409 10.462 20.9202Z" fill="#6B7394"/>
<path d="M10.1712 0.000643806C14.4773 0.0550455 17.8263 3.48235 17.7466 7.7801C17.6669 11.9962 14.1848 15.2875 9.85224 15.2331C5.86523 15.1787 2.46296 11.6426 2.48953 7.61689C2.5427 3.34635 5.97155 -0.0537579 10.1181 0.000643806C10.1447 0.000643806 10.1447 0.000643806 10.1712 0.000643806Z" fill="#6B7394"/>
<path fill-rule="evenodd" clip-rule="evenodd" d="M35.8571 4.92191H34.1238V6.57554C33.2378 5.26803 31.9667 4.61426 30.3103 4.61426C28.9236 4.61426 27.7295 5.1142 26.728 6.15251C25.7265 7.1909 25.2257 8.42152 25.2257 9.88288C25.2257 11.3442 25.7265 12.5749 26.728 13.6132C27.691 14.6515 28.8851 15.1515 30.3103 15.1515C32.0052 15.1515 33.2763 14.4977 34.1238 13.1902V18.9203H35.8571V4.92191ZM34.1239 9.88322C34.1239 10.9216 33.7772 11.7676 33.0839 12.4598C32.3905 13.152 31.5431 13.4982 30.5416 13.4982C29.54 13.4982 28.6926 13.152 27.9992 12.4598C27.3059 11.7291 26.9592 10.9216 26.9592 9.88322C26.9592 8.88334 27.3059 8.03729 27.9992 7.34507C28.6926 6.65285 29.54 6.30674 30.5416 6.30674C31.5431 6.30674 32.3905 6.65285 33.0839 7.34507C33.7772 8.03729 34.1239 8.84488 34.1239 9.88322Z" fill="#6B7394"/>
<path d="M45.4489 4.92188H47.1824V14.9207H45.4489V13.4978C44.7556 14.6515 43.677 15.1899 42.1748 15.1899C39.8251 15.1899 38.2843 13.6131 38.2843 11.075V4.92188H40.0177V10.9596C40.0177 12.5748 40.9807 13.5362 42.5214 13.5362C44.2548 13.5362 45.4489 12.4594 45.4489 10.2289V4.92188Z" fill="#6B7394"/>
<path fill-rule="evenodd" clip-rule="evenodd" d="M60.4704 9.92064C60.4704 8.45928 59.9696 7.22866 58.9684 6.19027C58.0054 5.19042 56.8111 4.65201 55.3859 4.72893C53.691 4.72893 52.4199 5.3827 51.5724 6.69021V4.95967H49.839V18.958H51.5724V13.2279C52.4584 14.5355 53.7295 15.1892 55.3859 15.1892C56.7726 15.1892 57.9667 14.6893 58.9684 13.6509C59.9696 12.6511 60.4704 11.382 60.4704 9.92064ZM58.737 9.8823C58.737 10.9206 58.39 11.7667 57.6971 12.4589C57.0036 13.1511 56.1561 13.4972 55.1546 13.4972C54.1531 13.4972 53.3057 13.1511 52.6123 12.4589C51.9189 11.7282 51.5723 10.9206 51.5723 9.8823C51.5723 8.88242 51.9189 8.03631 52.6123 7.34409C53.2672 6.65187 54.1146 6.30576 55.1546 6.30576C56.1561 6.30576 57.0036 6.65187 57.6971 7.34409C58.39 8.03631 58.737 8.84396 58.737 9.8823Z" fill="#6B7394"/>
<path fill-rule="evenodd" clip-rule="evenodd" d="M73.2206 9.92162C73.2206 8.46026 72.7197 7.22964 71.718 6.19125C70.7168 5.19139 69.5225 4.65299 68.1356 4.7299C66.4409 4.7299 65.1697 5.38368 64.3224 6.69119V4.96065H62.589V18.959H64.3224V13.2289C65.2084 14.5364 66.4791 15.1902 68.1356 15.1902C69.5225 15.1902 70.7168 14.6903 71.718 13.6519C72.7197 12.652 73.2206 11.383 73.2206 9.92162ZM71.4485 9.88327C71.4485 10.9216 71.102 11.7677 70.4086 12.4599C69.7151 13.1521 68.906 13.4982 67.866 13.4982C66.8643 13.4982 66.017 13.1521 65.3235 12.4599C64.6306 11.7292 64.2836 10.9216 64.2836 9.88327C64.2836 8.8834 64.6306 8.03729 65.3235 7.34507C65.9788 6.65285 66.8261 6.30674 67.866 6.30674C68.8678 6.30674 69.7151 6.65285 70.4086 7.34507C71.102 8.03729 71.4485 8.84494 71.4485 9.88327Z" fill="#6B7394"/>
<path d="M81.8869 4.92188H83.7747L79.6533 15.536C78.8054 17.805 77.1877 19.0741 75.1848 18.9202V17.305C76.4173 17.4204 77.3033 16.7282 77.8811 15.2668L78.0737 14.8823L73.6827 4.92188H75.57L78.998 12.7671L81.8869 4.92188Z" fill="#6B7394"/>
</g>
<defs>
<clipPath id="clip0_24_1888">
<rect width="83.193" height="21.0488" fill="white" transform="translate(0.581177)"/>
</clipPath>
</defs>
</svg>
