<svg width="88" height="22" viewBox="0 0 88 22" fill="none" xmlns="http://www.w3.org/2000/svg">
<g clip-path="url(#clip0_24_1883)">
<path d="M32.11 16.3189C34.6704 16.3189 36.7031 14.677 36.9963 12.488H34.2209C34.0254 13.3675 33.2241 13.9734 32.2273 13.9734C30.7418 13.9734 29.8623 12.8398 29.8623 11.2371C29.8623 9.63434 30.7223 8.48117 32.1882 8.48117C33.185 8.48117 34.0254 9.12617 34.1818 10.0057H36.9181C36.7422 7.7189 34.69 6.15527 32.11 6.15527C29.0609 6.15527 27.0282 8.3639 27.0282 11.2371C27.0282 14.1102 29.0609 16.3189 32.11 16.3189ZM42.8434 16.3189C45.8729 16.3189 48.0424 14.1689 48.0424 11.2371C48.0424 8.30526 45.8729 6.15527 42.8434 6.15527C39.8139 6.15527 37.6443 8.30526 37.6443 11.2371C37.6443 14.1689 39.8139 16.3189 42.8434 16.3189ZM42.8434 13.9734C41.3775 13.9734 40.3807 12.8593 40.3807 11.2371C40.3807 9.59525 41.3775 8.48117 42.8434 8.48117C44.3093 8.48117 45.3061 9.59525 45.3061 11.2371C45.3061 12.8593 44.3093 13.9734 42.8434 13.9734ZM49.3024 16.1625H52.0387V10.5725C52.0387 9.30207 52.7626 8.46162 53.8955 8.46162C54.9517 8.46162 55.6163 9.30207 55.6163 10.5725V16.1625H58.3526V10.5725C58.3526 9.30207 59.0758 8.46162 60.2094 8.46162C61.2649 8.46162 61.949 9.30207 61.949 10.5725V16.1625H64.6658V9.71253C64.6658 7.73845 63.278 6.15527 61.128 6.15527C59.5449 6.15527 58.3135 6.99572 57.8444 7.95344C57.3753 6.78072 56.3785 6.15527 54.8345 6.15527C53.5054 6.15527 52.5672 6.80027 52.0395 7.69936V6.31164H49.3031L49.3024 16.1625ZM73.4055 6.31164V7.2889C72.8583 6.60482 71.881 6.15527 70.6887 6.15527C67.8156 6.15527 66.076 8.16844 66.076 11.2371C66.076 14.3057 67.8156 16.3189 70.7278 16.3189C71.881 16.3189 72.9169 15.8889 73.4251 15.1657V16.4557C73.4251 17.3743 72.8192 18.0193 71.9983 18.0193H67.4637V20.1497H72.4283C74.6564 20.1497 76.1419 18.8011 76.1419 16.7488V6.31164H73.4055ZM71.1578 13.9734C69.7115 13.9734 68.7537 12.8984 68.7537 11.2371C68.7537 9.57571 69.7115 8.48117 71.1578 8.48117C72.6237 8.48117 73.5814 9.57571 73.5814 11.2371C73.5814 12.8984 72.6237 13.9734 71.1578 13.9734ZM86.8896 6.31164H84.0946L82.0423 12.6639L79.9705 6.31164H77.1951L80.7719 16.0843L79.3255 20.1497H81.925L83.3128 16.1234L86.8896 6.31164Z" fill="#6B7394"/>
<path fill-rule="evenodd" clip-rule="evenodd" d="M19.2234 4.59466C20.4177 6.34125 21.0551 8.40855 21.0516 10.5244C21.0516 16.3369 16.3397 21.0488 10.5272 21.0488C4.71474 21.0488 0.00280762 16.3369 0.00280762 10.5244C0.00280762 4.71193 4.71474 0 10.5272 0C12.7125 0 14.7423 0.666045 16.4247 1.80644L14.743 3.48659C13.7033 4.52399 12.2472 4.92543 10.7821 4.80515C9.93021 4.73259 9.07278 4.84705 8.26979 5.14051C7.46679 5.43397 6.73761 5.89935 6.13328 6.50409C3.55856 9.07355 3.84723 13.4201 6.99403 15.5942C8.94179 16.9398 11.6338 16.9571 13.5973 15.6333C15.5165 14.3388 16.3818 12.2579 16.2172 10.241C16.0954 8.74053 16.5509 7.26335 17.6154 6.19963L19.2226 4.59466H19.2234Z" fill="#6B7394"/>
</g>
<defs>
<clipPath id="clip0_24_1883">
<rect width="87.2023" height="21.0488" fill="white" transform="translate(0.00280762)"/>
</clipPath>
</defs>
</svg>
