<svg width="111" height="40" viewBox="0 0 111 40" fill="none" xmlns="http://www.w3.org/2000/svg">
<path d="M21.4208 14.281V10.7108V7.14062H17.8506H14.2805V10.7108H10.7103V14.281H7.14014V17.8511V21.4213H10.7103H14.2805V17.8511V14.281H17.8506H21.4208Z" fill="#6B7394"/>
<path d="M26.776 21.4212C27.7619 21.4212 28.5611 20.622 28.5611 19.6362C28.5611 18.6503 27.7619 17.8511 26.776 17.8511C25.7902 17.8511 24.991 18.6503 24.991 19.6362C24.991 20.622 25.7902 21.4212 26.776 21.4212Z" fill="#6B7394"/>
<path d="M30.3463 21.1981C31.2089 21.1981 31.9082 20.4988 31.9082 19.6362C31.9082 18.7735 31.2089 18.0742 30.3463 18.0742C29.4836 18.0742 28.7843 18.7735 28.7843 19.6362C28.7843 20.4988 29.4836 21.1981 30.3463 21.1981Z" fill="#6B7394"/>
<path d="M26.776 24.9911C27.7619 24.9911 28.5611 24.1919 28.5611 23.206C28.5611 22.2201 27.7619 21.4209 26.776 21.4209C25.7902 21.4209 24.991 22.2201 24.991 23.206C24.991 24.1919 25.7902 24.9911 26.776 24.9911Z" fill="#6B7394"/>
<path d="M26.7762 28.3383C27.6388 28.3383 28.3381 27.6389 28.3381 26.7763C28.3381 25.9137 27.6388 25.2144 26.7762 25.2144C25.9135 25.2144 25.2142 25.9137 25.2142 26.7763C25.2142 27.6389 25.9135 28.3383 26.7762 28.3383Z" fill="#6B7394"/>
<path d="M30.3463 24.5448C31.0857 24.5448 31.6851 23.9454 31.6851 23.206C31.6851 22.4666 31.0857 21.8672 30.3463 21.8672C29.6069 21.8672 29.0074 22.4666 29.0074 23.206C29.0074 23.9454 29.6069 24.5448 30.3463 24.5448Z" fill="#6B7394"/>
<path d="M19.6359 28.5614C20.6218 28.5614 21.421 27.7622 21.421 26.7763C21.421 25.7904 20.6218 24.9912 19.6359 24.9912C18.65 24.9912 17.8508 25.7904 17.8508 26.7763C17.8508 27.7622 18.65 28.5614 19.6359 28.5614Z" fill="#6B7394"/>
<path d="M23.206 28.5614C24.1919 28.5614 24.9911 27.7622 24.9911 26.7763C24.9911 25.7904 24.1919 24.9912 23.206 24.9912C22.2201 24.9912 21.4209 25.7904 21.4209 26.7763C21.4209 27.7622 22.2201 28.5614 23.206 28.5614Z" fill="#6B7394"/>
<path d="M19.6358 31.9081C20.4984 31.9081 21.1977 31.2088 21.1977 30.3461C21.1977 29.4835 20.4984 28.7842 19.6358 28.7842C18.7732 28.7842 18.0739 29.4835 18.0739 30.3461C18.0739 31.2088 18.7732 31.9081 19.6358 31.9081Z" fill="#6B7394"/>
<path d="M23.206 31.6849C23.9454 31.6849 24.5448 31.0855 24.5448 30.3461C24.5448 29.6067 23.9454 29.0073 23.206 29.0073C22.4666 29.0073 21.8672 29.6067 21.8672 30.3461C21.8672 31.0855 22.4666 31.6849 23.206 31.6849Z" fill="#6B7394"/>
<path d="M95.1843 16.4561L93.8553 22.8155H92.2604L90.9314 16.4561H89.0707C89.0707 16.4561 90.2456 20.9606 90.6655 22.5505C91.0164 23.8754 91.7421 24.5458 93.0578 24.5458C94.3736 24.5458 95.0514 24.1483 95.4501 22.5584C95.8489 20.9686 97.045 16.464 97.045 16.464L95.1843 16.4561Z" fill="#6B7394"/>
<path d="M52.5224 15.8597C53.1463 15.8597 53.6521 15.3555 53.6521 14.7336C53.6521 14.1116 53.1463 13.6074 52.5224 13.6074C51.8985 13.6074 51.3927 14.1116 51.3927 14.7336C51.3927 15.3555 51.8985 15.8597 52.5224 15.8597Z" fill="#6B7394"/>
<path d="M46.4089 18.0459H48.5354V16.4561H46.4089V13.2764H44.814V16.4561H42.9534V18.0459H44.814V20.4307C44.814 22.8155 46.0102 24.4053 48.6683 24.4053H49.3328V22.8155H46.4089V18.0459Z" fill="#6B7394"/>
<path d="M54.1172 20.2982C54.1172 17.8472 52.5223 16.4561 50.13 16.4561V18.0459H52.5223V22.8155H50.9274V24.4053H55.712V22.8155H54.1172V20.2982Z" fill="#6B7394"/>
<path d="M99.3045 18.0459H101.697V16.4561C99.4374 16.4561 97.7096 17.9108 97.7096 20.1657V22.8155H96.6464V24.4053H102.228V22.8155H99.3045V18.0459Z" fill="#6B7394"/>
<path d="M109.142 16.4561L107.946 22.8155H105.952L104.756 16.4561H102.896L104.358 22.2855C104.623 23.3454 105.155 24.5378 106.484 24.5378H107.282V26.2601H104.358V27.85H104.889C105.779 27.8524 106.646 27.5707 107.364 27.0462C108.081 26.5217 108.611 25.7819 108.876 24.9353C109.254 23.4355 111.003 16.4561 111.003 16.4561H109.142Z" fill="#6B7394"/>
<path d="M84.8186 16.3237C82.5432 16.3237 80.6985 18.0302 80.6985 20.2984C80.6966 21.3655 81.1119 22.3913 81.8564 23.1581C82.6008 23.925 83.6157 24.3724 84.6857 24.4055H88.1412V22.8156H82.5592V21.2258H88.9386V20.2984C88.9386 18.0302 87.0939 16.3237 84.8186 16.3237ZM87.078 19.6359H82.5592V18.0461H87.078V19.6359Z" fill="#6B7394"/>
<path d="M67.6728 18.0459H70.3309V16.4561H67.6728V13.2764H66.078V16.4561H64.2173V18.0459H66.078V20.5632C66.078 22.948 67.2741 24.4053 69.9322 24.4053H71.1284V22.8155H67.6728V18.0459Z" fill="#6B7394"/>
<path d="M75.6492 16.3238C75.1047 16.3115 74.5635 16.4093 74.058 16.6113C73.5526 16.8134 73.0934 17.1155 72.7083 17.4993C72.3233 17.8832 72.0202 18.3409 71.8176 18.8447C71.6149 19.3486 71.5168 19.8882 71.5291 20.4309C71.5291 21.5202 71.9632 22.5648 72.7359 23.3351C73.5085 24.1053 74.5565 24.538 75.6492 24.538C76.7419 24.538 77.7899 24.1053 78.5625 23.3351C79.3352 22.5648 79.7693 21.5202 79.7693 20.4309C79.7816 19.8882 79.6835 19.3486 79.4808 18.8447C79.2781 18.3409 78.9751 17.8832 78.59 17.4993C78.2049 17.1155 77.7458 16.8134 77.2404 16.6113C76.7349 16.4093 76.1936 16.3115 75.6492 16.3238ZM78.0415 22.8157H73.2569V18.0461H78.0415V22.8157Z" fill="#6B7394"/>
<path d="M59.832 16.3237C57.5567 16.3237 55.7119 18.0302 55.7119 20.2984C55.71 21.3655 56.1254 22.3913 56.8698 23.1581C57.6142 23.925 58.6291 24.3724 59.6991 24.4055H63.1546V22.8156H57.5726V21.2258H63.9521V20.2984C63.9521 18.0302 62.1073 16.3237 59.832 16.3237ZM62.0914 19.6359H57.5726V18.0461H62.0914V19.6359Z" fill="#6B7394"/>
</svg>
