<svg width="86" height="20" viewBox="0 0 86 20" fill="none" xmlns="http://www.w3.org/2000/svg">
<path d="M3.97612 12.1313C3.97612 10.881 4.70783 10.1492 5.71571 10.1492C6.72359 10.1492 7.42269 10.7288 7.42269 12.3449V18.5042H10.6246V12.2841C10.6246 10.7902 11.4787 10.1498 12.3642 10.1498C13.4618 10.1498 14.1038 10.7293 14.1038 12.3455V18.5048H17.3058V11.3387C17.3058 8.83803 15.8119 7.31588 13.6466 7.31588C12.9439 7.30672 12.2529 7.49628 11.6532 7.86273C11.0536 8.22917 10.5696 8.75759 10.2571 9.38709C9.99286 8.75398 9.54195 8.21642 8.96449 7.84601C8.38702 7.4756 7.7104 7.28992 7.02476 7.3137C6.38288 7.31707 5.75294 7.48752 5.19694 7.80827C4.64094 8.12902 4.17804 8.58902 3.8538 9.143V7.58823H0.77417V18.5042H3.97612V12.1313ZM25.5036 7.06962C21.8445 7.06962 19.1003 9.69152 19.1003 13.0462C19.1003 16.4009 21.8445 19.0228 25.5036 19.0228C29.1932 19.0228 31.9374 16.4004 31.9374 13.0462C31.9374 9.69206 29.1932 7.06962 25.5036 7.06962ZM25.5036 9.81383C25.9217 9.81659 26.3349 9.903 26.719 10.068C27.1031 10.2329 27.4503 10.4731 27.7402 10.7743C28.03 11.0756 28.2566 11.4318 28.4066 11.822C28.5567 12.2121 28.6271 12.6284 28.6137 13.0462C28.6271 13.464 28.5567 13.8803 28.4066 14.2705C28.2566 14.6607 28.03 15.0169 27.7402 15.3181C27.4503 15.6193 27.1031 15.8595 26.719 16.0245C26.3349 16.1894 25.9217 16.2758 25.5036 16.2786C25.0864 16.2777 24.6737 16.1924 24.2904 16.0277C23.9071 15.863 23.5611 15.6223 23.2733 15.3203C22.9856 15.0182 22.7619 14.661 22.616 14.2702C22.47 13.8793 22.4047 13.463 22.424 13.0462C22.4072 12.6301 22.4743 12.2148 22.6212 11.8251C22.7681 11.4354 22.9918 11.0792 23.2791 10.7777C23.5664 10.4761 23.9113 10.2354 24.2935 10.0698C24.6756 9.90427 25.0872 9.81721 25.5036 9.81383ZM39.6824 7.06962C36.0233 7.06962 33.2791 9.69152 33.2791 13.0462C33.2791 16.4009 36.0233 19.0228 39.6824 19.0228C43.372 19.0228 46.1162 16.4004 46.1162 13.0462C46.1162 9.69206 43.372 7.06962 39.6824 7.06962ZM39.6824 9.81383C40.1005 9.81659 40.5137 9.903 40.8978 10.068C41.2819 10.2329 41.6291 10.4731 41.919 10.7743C42.2088 11.0756 42.4354 11.4318 42.5854 11.822C42.7355 12.2121 42.8059 12.6284 42.7925 13.0462C42.8059 13.464 42.7355 13.8803 42.5854 14.2705C42.4354 14.6607 42.2088 15.0169 41.919 15.3181C41.6291 15.6193 41.2819 15.8595 40.8978 16.0245C40.5137 16.1894 40.1005 16.2758 39.6824 16.2786C39.2652 16.2777 38.8525 16.1924 38.4692 16.0277C38.0859 15.863 37.7399 15.6223 37.4522 15.3203C37.1644 15.0182 36.9408 14.661 36.7948 14.2702C36.6488 13.8793 36.5835 13.463 36.6028 13.0462C36.586 12.6301 36.6531 12.2148 36.8 11.8251C36.9469 11.4354 37.1706 11.0792 37.4579 10.7777C37.7452 10.4761 38.0901 10.2354 38.4723 10.0698C38.8544 9.90427 39.266 9.81721 39.6824 9.81383ZM51.1785 12.1313C51.1916 11.5941 51.4169 11.084 51.8052 10.7126C52.1934 10.3411 52.713 10.1386 53.2502 10.1492C54.4087 10.1492 55.2932 10.7592 55.2932 12.3449V18.5042H58.4951V11.3387C58.4951 8.83803 56.818 7.31588 54.5919 7.31588C53.9083 7.31154 53.2321 7.45667 52.6106 7.74111C51.989 8.02554 51.4372 8.44241 50.9936 8.96252V7.58823H47.9771V18.5042H51.179L51.1785 12.1313ZM64.1379 2.49556H60.8142V5.54475H64.1379V2.49556ZM64.077 7.58769H60.8751V18.5042H64.077V7.58769ZM71.7606 10.2716V7.58823H70.4798V0.0258789L67.3089 1.51976V7.58823H66.0254V10.2716H67.3062V18.5042H70.4771V10.2716H71.7606ZM85.1164 17.1321L83.5002 15.15C82.4301 15.9914 81.1104 16.4527 79.7492 16.4613C77.8889 16.4613 76.7592 15.6072 76.4874 13.9606H85.2996V13.0462C85.3136 12.2497 85.1656 11.4586 84.8644 10.7211C84.5632 9.98352 84.1152 9.31493 83.5476 8.75592C82.98 8.1969 82.3047 7.75915 81.5626 7.46926C80.8206 7.17937 80.0273 7.0434 79.2311 7.06962C75.572 7.06962 73.0414 9.57029 73.0414 13.0462C73.0414 16.5222 75.5111 19.0228 79.6888 19.0228C81.6619 19.0371 83.5793 18.3692 85.1164 17.1321ZM79.2007 9.69152C79.8233 9.66441 80.4342 9.86674 80.9176 10.2601C81.401 10.6535 81.7232 11.2106 81.8231 11.8258H76.5782C76.6824 11.2126 77.0058 10.6582 77.4882 10.2656C77.9706 9.87304 78.5791 9.66902 79.2007 9.69152Z" fill="#6B7394"/>
</svg>
