<svg width="49" height="22" viewBox="0 0 49 22" fill="none" xmlns="http://www.w3.org/2000/svg">
<g clip-path="url(#clip0_24_1886)">
<path d="M19.3693 21.038C17.7187 20.9493 16.4871 20.2701 15.7668 19.0515C15.2835 18.2334 15.1364 17.1575 15.3575 16.0582C15.6025 14.8401 16.4344 13.7424 17.711 12.9529C18.4446 12.4989 19.0725 12.2171 20.3511 11.7677C20.6726 11.6548 20.95 11.5508 20.9679 11.5362C20.9936 11.5159 20.9972 11.4438 20.9844 11.2099C20.9476 10.5445 21.0586 9.50784 21.2466 8.7597C21.5627 7.50071 22.171 6.48506 22.9784 5.86899C23.558 5.42635 24.3177 5.09352 25.0741 4.95081C25.4918 4.8722 26.1913 4.87244 26.5844 4.95154C28.2686 5.29065 29.2139 6.58882 28.8416 8.05147C28.7632 8.35987 28.5155 8.8654 28.3058 9.14501C27.7686 9.86146 26.9605 10.4986 25.8193 11.1047C25.6759 11.1812 25.2061 11.4119 24.7758 11.618C24.3455 11.8238 23.98 12.006 23.9631 12.0229C23.9392 12.0469 23.9452 12.1168 23.9917 12.3519C24.2057 13.4389 24.5656 14.3573 25.1803 15.3843C25.4246 15.7931 25.7625 16.3085 25.8009 16.3325C25.8566 16.3668 26.0839 15.9994 26.2322 15.6359C26.4155 15.186 26.5205 14.5909 26.4688 14.2954C26.4315 14.0837 26.3159 13.8602 26.1683 13.7158C26.1006 13.6491 26.0445 13.5859 26.0443 13.5755C26.044 13.5654 26.6168 13.5596 27.3175 13.5632L28.5915 13.5697L28.5842 13.7313C28.5743 13.9521 28.4923 14.4231 28.406 14.7583C28.1624 15.7009 27.7033 16.5071 26.9097 17.3876C26.8161 17.4913 26.7394 17.5932 26.7394 17.614C26.7394 17.6348 26.871 17.7792 27.0316 17.9349C28.0347 18.9073 29.8115 20.0287 31.2582 20.6022C31.3988 20.658 31.5134 20.7149 31.5129 20.7284C31.5124 20.7449 30.6772 20.7555 29.0721 20.7599L26.632 20.7662L26.4932 20.688C26.2097 20.5286 25.582 20.0214 24.979 19.4641C24.8513 19.3461 24.7304 19.2496 24.7103 19.2496C24.6902 19.2496 24.5482 19.332 24.3954 19.4329C23.6119 19.9496 22.6756 20.4137 21.8837 20.6779C20.9829 20.9785 20.2394 21.0847 19.3693 21.038ZM21.4239 18.924C21.7891 18.8589 22.2378 18.7264 22.6504 18.5617C23.0653 18.3962 23.5795 18.1432 23.5979 18.0953C23.6051 18.0764 23.5101 17.9175 23.387 17.7419C22.8193 16.9331 22.2129 15.7955 21.8053 14.7753C21.6551 14.3991 21.3745 13.5661 21.3208 13.3378C21.3039 13.265 21.2732 13.1989 21.2526 13.1909C21.1958 13.1692 20.7297 13.4176 20.3269 13.6846C18.8955 14.6335 18.2093 15.7919 18.3617 17.0023C18.4294 17.5402 18.5997 17.9323 18.9095 18.2634C19.4823 18.8754 20.3777 19.1107 21.4239 18.924ZM23.8535 10.5075C24.3833 10.1974 25.2236 9.44446 25.6935 8.85911C26.2951 8.11001 26.6148 7.41098 26.6151 6.84401C26.6151 6.51989 26.5691 6.37476 26.4192 6.2248C26.2699 6.0758 26.1016 6.01412 25.8445 6.01388C25.0816 6.01388 24.2565 6.91948 23.8971 8.15161C23.7157 8.77276 23.6716 9.10704 23.6704 9.86582C23.6695 10.4454 23.6789 10.5743 23.7224 10.5743C23.7319 10.5743 23.7909 10.5443 23.8535 10.5075ZM36.4707 21.0235C35.2137 20.897 34.3853 20.7091 33.4506 20.339C32.1788 19.8349 31.3847 19.2106 30.714 18.1877C30.5132 17.8815 30.191 17.2386 30.0609 16.8832C29.4792 15.3001 29.3515 13.307 29.6981 11.2278C30.0491 9.12349 30.8485 7.09532 31.9514 5.51004C32.6669 4.48205 33.7314 3.39939 34.8303 2.58184C36.6449 1.23215 38.7335 0.402496 41.0539 0.110789C41.7578 0.0222605 42.152 -0.000476249 42.9834 7.51132e-06C44.2409 0.000733152 45.1987 0.0965177 46.4635 0.347831C47.2705 0.50844 48.5558 0.855296 48.5805 0.919394C48.5931 0.951806 47.7786 3.56194 47.745 3.59701C47.7346 3.60789 47.6096 3.52444 47.4676 3.41076C46.3237 2.49887 45.1383 1.94376 43.9395 1.7592C43.5566 1.70018 42.837 1.69946 42.4616 1.75775C40.781 2.01801 39.2229 3.09172 37.8395 4.94283C37.3901 5.54414 36.895 6.35009 36.5099 7.10669C35.9882 8.13226 35.6295 9.03883 35.2667 10.2511C34.111 14.1082 34.0524 16.8029 35.0925 18.2617C35.5209 18.8628 36.1471 19.2457 36.9417 19.392C37.3979 19.4762 38.5052 19.4252 38.6155 19.3151C38.6331 19.2977 39.1738 17.6062 39.8167 15.5563C40.8732 12.1891 40.9874 11.8093 40.9995 11.6185C41.0154 11.3621 40.9678 11.133 40.8524 10.9124C40.7477 10.7119 40.471 10.4398 40.2429 10.3133C40.1444 10.2586 40.0636 10.2054 40.0634 10.1953C40.0631 10.1851 41.8356 10.1766 44.0027 10.1766C46.1694 10.1766 47.9424 10.1851 47.9422 10.1953C47.9422 10.2054 47.8461 10.2579 47.7288 10.3114C47.1154 10.5919 46.6708 11.0123 46.4065 11.5624C46.3491 11.6814 45.8533 13.2217 45.1085 15.5935L43.9032 19.4322L43.5549 19.5991C42.1363 20.28 40.4008 20.7703 38.6697 20.9795C38.3516 21.0182 36.7371 21.0504 36.471 21.0235H36.4707ZM0.205881 20.7429C0.197899 20.7304 0.250387 20.6861 0.322225 20.6447C0.750353 20.3983 1.23097 19.8869 1.43463 19.4607C1.49365 19.3374 6.89798 2.12517 7.01723 1.68035C7.03827 1.60246 7.05593 1.43799 7.05617 1.31511C7.05786 0.939712 6.94128 0.669048 6.66674 0.409269C6.59176 0.338398 6.53056 0.269946 6.53056 0.257126C6.53056 0.223021 15.9675 0.225924 16.4002 0.260271C17.3373 0.334528 18.2753 0.583665 18.9927 0.94842C20.2176 1.57126 20.951 2.51653 21.1764 3.76294C21.2393 4.10979 21.2514 4.88139 21.1999 5.25486C20.9899 6.77725 20.3001 8.39204 19.3609 9.56032C17.8394 11.4528 15.3512 12.6629 12.2975 12.9957C11.3295 13.1012 10.1097 13.1278 9.24591 13.062C8.99629 13.0429 8.78682 13.0325 8.78053 13.0388C8.74981 13.0698 6.80147 19.3212 6.77922 19.4607C6.71052 19.891 6.93209 20.3748 7.31401 20.6283C7.38948 20.6783 7.44463 20.7299 7.43689 20.7424C7.41754 20.7736 0.224989 20.7739 0.205639 20.7427L0.205881 20.7429ZM10.9178 11.4579C11.6272 11.3321 12.2532 11.0694 12.8572 10.6444C13.1506 10.4381 13.7534 9.83607 14.002 9.50106C14.6241 8.66343 15.0818 7.67511 15.4509 6.37331C15.686 5.54366 15.7861 4.91163 15.7859 4.26024C15.7859 3.7581 15.7404 3.45817 15.6141 3.12171C15.4267 2.62247 15.045 2.22797 14.56 2.03204C14.1435 1.86369 13.7879 1.81943 12.9326 1.82935L12.2878 1.8366L10.7889 6.60939C9.96478 9.23451 9.29477 11.395 9.30033 11.4105C9.30614 11.4259 9.40967 11.4521 9.53012 11.4685C9.65106 11.485 9.76644 11.5024 9.787 11.5075C9.88085 11.5304 10.7163 11.4937 10.9178 11.4579Z" fill="#6B7394"/>
</g>
<defs>
<clipPath id="clip0_24_1886">
<rect width="48.376" height="21.0487" fill="white" transform="translate(0.205078)"/>
</clipPath>
</defs>
</svg>
