<svg width="55" height="55" viewBox="0 0 55 55" fill="none" xmlns="http://www.w3.org/2000/svg">
<rect width="55" height="55" rx="27.5" fill="#213ED7"/>
<path d="M35.375 30.5625C35.3516 31.0781 35.1641 31.5 34.8125 31.8281V34.7109C35.1641 34.9219 35.3516 35.2383 35.375 35.6602C35.375 35.9648 35.2695 36.2227 35.0586 36.4336C34.8477 36.6445 34.5781 36.75 34.25 36.75H23C22.0391 36.7266 21.2422 36.3984 20.6094 35.7656C19.9766 35.1328 19.6484 34.3359 19.625 33.375V22.125C19.6484 21.1641 19.9766 20.3672 20.6094 19.7344C21.2422 19.1016 22.0391 18.7734 23 18.75H33.6875C34.1562 18.7734 34.5547 18.9375 34.8828 19.2422C35.1875 19.5703 35.3516 19.9688 35.375 20.4375V30.5625ZM24.6523 23.25C24.3477 23.2734 24.1719 23.4609 24.125 23.8125C24.1719 24.1641 24.3477 24.3516 24.6523 24.375H31.4375C31.7891 24.3516 31.9766 24.1641 32 23.8125C31.9766 23.4609 31.7773 23.2734 31.4023 23.25H24.6523ZM24.6523 25.5C24.3477 25.5234 24.1719 25.7109 24.125 26.0625C24.1719 26.4141 24.3477 26.6016 24.6523 26.625H31.4375C31.7891 26.6016 31.9766 26.4141 32 26.0625C31.9766 25.7109 31.7773 25.5234 31.4023 25.5H24.6523ZM33.125 34.5V32.25H23C22.6719 32.25 22.4023 32.3555 22.1914 32.5664C21.9805 32.7773 21.875 33.0469 21.875 33.375C21.875 33.7031 21.9805 33.9727 22.1914 34.1836C22.4023 34.3945 22.6719 34.5 23 34.5H33.125Z" fill="white"/>
</svg>
