<svg width="55" height="55" viewBox="0 0 55 55" fill="none" xmlns="http://www.w3.org/2000/svg">
<rect width="55" height="55" rx="27.5" fill="#213ED7"/>
<path d="M34.25 24.375H33.125V31.125H34.25C34.5781 31.125 34.8477 31.2305 35.0586 31.4414C35.2695 31.6523 35.375 31.9219 35.375 32.25C35.375 32.5781 35.2695 32.8477 35.0586 33.0586C34.8477 33.2695 34.5781 33.375 34.25 33.375H33.125V34.5C33.125 34.8281 33.0195 35.0977 32.8086 35.3086C32.5977 35.5195 32.3281 35.625 32 35.625C31.6719 35.625 31.4023 35.5195 31.1914 35.3086C30.9805 35.0977 30.875 34.8281 30.875 34.5V33.375H24.125V34.5C24.125 34.8281 24.0195 35.0977 23.8086 35.3086C23.5977 35.5195 23.3281 35.625 23 35.625C22.6719 35.625 22.4023 35.5195 22.1914 35.3086C21.9805 35.0977 21.875 34.8281 21.875 34.5V33.375H20.75C20.4219 33.375 20.1523 33.2695 19.9414 33.0586C19.7305 32.8477 19.625 32.5781 19.625 32.25C19.625 31.9219 19.7305 31.6523 19.9414 31.4414C20.1523 31.2305 20.4219 31.125 20.75 31.125H21.875V24.375H20.75C20.4219 24.375 20.1523 24.2695 19.9414 24.0586C19.7305 23.8477 19.625 23.5781 19.625 23.25C19.625 22.9219 19.7305 22.6523 19.9414 22.4414C20.1523 22.2305 20.4219 22.125 20.75 22.125H21.875V21C21.875 20.6719 21.9805 20.4023 22.1914 20.1914C22.4023 19.9805 22.6719 19.875 23 19.875C23.3281 19.875 23.5977 19.9805 23.8086 20.1914C24.0195 20.4023 24.125 20.6719 24.125 21V22.125H30.875V21C30.875 20.6719 30.9805 20.4023 31.1914 20.1914C31.4023 19.9805 31.6719 19.875 32 19.875C32.3281 19.875 32.5977 19.9805 32.8086 20.1914C33.0195 20.4023 33.125 20.6719 33.125 21V22.125H34.25C34.5781 22.125 34.8477 22.2305 35.0586 22.4414C35.2695 22.6523 35.375 22.9219 35.375 23.25C35.375 23.5781 35.2695 23.8477 35.0586 24.0586C34.8477 24.2695 34.5781 24.375 34.25 24.375ZM24.125 31.125H30.875V24.375H24.125V31.125Z" fill="white"/>
</svg>
