<svg width="55" height="55" viewBox="0 0 55 55" fill="none" xmlns="http://www.w3.org/2000/svg">
<rect width="55" height="55" rx="27.5" fill="#213ED7"/>
<path d="M23.8438 20.0859C24.1953 20.4609 24.2188 20.8594 23.9141 21.2812L21.3828 24.0938C21.2188 24.2812 21.0195 24.3633 20.7852 24.3398C20.5273 24.3867 20.3164 24.3047 20.1523 24.0938L18.7461 22.6875C18.418 22.3125 18.418 21.9258 18.7461 21.5273C19.1445 21.1992 19.543 21.1992 19.9414 21.5273L20.7148 22.3008L22.6484 20.1562C23.0234 19.8047 23.4219 19.7812 23.8438 20.0859ZM23.8438 25.7109C24.1953 26.0859 24.2188 26.4844 23.9141 26.9062L21.3828 29.7188C21.2188 29.9062 21.0195 29.9883 20.7852 29.9648C20.5273 30.0117 20.3164 29.9297 20.1523 29.7188L18.7461 28.3125C18.418 27.9375 18.418 27.5508 18.7461 27.1523C19.1445 26.8242 19.543 26.8242 19.9414 27.1523L20.7148 27.9258L22.6484 25.7812C23.0234 25.4297 23.4219 25.4062 23.8438 25.7109ZM26.375 22.125C26.375 21.7969 26.4805 21.5273 26.6914 21.3164C26.9023 21.1055 27.1719 21 27.5 21H35.375C35.7031 21 35.9727 21.1055 36.1836 21.3164C36.3945 21.5273 36.5 21.7969 36.5 22.125C36.5 22.4531 36.3945 22.7227 36.1836 22.9336C35.9727 23.1445 35.7031 23.25 35.375 23.25H27.5C27.1719 23.25 26.9023 23.1445 26.6914 22.9336C26.4805 22.7227 26.375 22.4531 26.375 22.125ZM26.375 27.75C26.375 27.4219 26.4805 27.1523 26.6914 26.9414C26.9023 26.7305 27.1719 26.625 27.5 26.625H35.375C35.7031 26.625 35.9727 26.7305 36.1836 26.9414C36.3945 27.1523 36.5 27.4219 36.5 27.75C36.5 28.0781 36.3945 28.3477 36.1836 28.5586C35.9727 28.7695 35.7031 28.875 35.375 28.875H27.5C27.1719 28.875 26.9023 28.7695 26.6914 28.5586C26.4805 28.3477 26.375 28.0781 26.375 27.75ZM24.125 33.375C24.125 33.0469 24.2305 32.7773 24.4414 32.5664C24.6523 32.3555 24.9219 32.25 25.25 32.25H35.375C35.7031 32.25 35.9727 32.3555 36.1836 32.5664C36.3945 32.7773 36.5 33.0469 36.5 33.375C36.5 33.7031 36.3945 33.9727 36.1836 34.1836C35.9727 34.3945 35.7031 34.5 35.375 34.5H25.25C24.9219 34.5 24.6523 34.3945 24.4414 34.1836C24.2305 33.9727 24.125 33.7031 24.125 33.375ZM18.5 33.375C18.5234 32.9062 18.6875 32.5078 18.9922 32.1797C19.3203 31.875 19.7188 31.7109 20.1875 31.6875C20.6562 31.7109 21.0547 31.875 21.3828 32.1797C21.6875 32.5078 21.8516 32.9062 21.875 33.375C21.8516 33.8438 21.6875 34.2422 21.3828 34.5703C21.0547 34.875 20.6562 35.0391 20.1875 35.0625C19.7188 35.0391 19.3203 34.875 18.9922 34.5703C18.6875 34.2422 18.5234 33.8438 18.5 33.375Z" fill="white"/>
</svg>
