<svg width="55" height="55" viewBox="0 0 55 55" fill="none" xmlns="http://www.w3.org/2000/svg">
<rect width="55" height="55" rx="27.5" fill="#213ED7"/>
<path d="M19.625 21V26.625C18.7344 26.6484 17.9844 26.9414 17.375 27.5039V20.5078C17.3984 20.0156 17.5625 19.6055 17.8672 19.2773C18.1953 18.9492 18.5938 18.7734 19.0625 18.75H35.9375C36.4062 18.7734 36.8047 18.9492 37.1328 19.2773C37.4375 19.6055 37.6016 20.0156 37.625 20.5078V27.5039C37.0156 26.9414 36.2656 26.6484 35.375 26.625V21H19.625ZM25.25 30C25.2734 29.3672 25.4961 28.8398 25.918 28.418C26.3398 27.9961 26.8672 27.7734 27.5 27.75C28.1328 27.7734 28.6602 27.9961 29.082 28.418C29.5039 28.8398 29.7266 29.3672 29.75 30C29.7266 30.6328 29.5039 31.1602 29.082 31.582C28.6602 32.0039 28.1328 32.2266 27.5 32.25C26.8672 32.2266 26.3398 32.0039 25.918 31.582C25.4961 31.1602 25.2734 30.6328 25.25 30ZM28.3438 33.375C29.0469 33.3984 29.6445 33.6562 30.1367 34.1484C30.6055 34.6406 30.8516 35.2617 30.875 36.0117C30.8281 36.457 30.582 36.7031 30.1367 36.75H24.8633C24.418 36.7031 24.1719 36.457 24.125 36.0117C24.1484 35.2617 24.3945 34.6406 24.8633 34.1484C25.3555 33.6562 25.9531 33.3984 26.6562 33.375H28.3438ZM36.2188 33.375C36.9219 33.3984 37.5195 33.6562 38.0117 34.1484C38.4805 34.6406 38.7266 35.2617 38.75 36.0117C38.7031 36.457 38.457 36.7031 38.0117 36.75H32.7383C32.293 36.7031 32.0469 36.457 32 36.0117C32.0234 35.2617 32.2695 34.6406 32.7383 34.1484C33.2305 33.6562 33.8281 33.3984 34.5312 33.375H36.2188ZM33.125 30C33.1484 29.3672 33.3711 28.8398 33.793 28.418C34.2148 27.9961 34.7422 27.7734 35.375 27.75C36.0078 27.7734 36.5352 27.9961 36.957 28.418C37.3789 28.8398 37.6016 29.3672 37.625 30C37.6016 30.6328 37.3789 31.1602 36.957 31.582C36.5352 32.0039 36.0078 32.2266 35.375 32.25C34.7422 32.2266 34.2148 32.0039 33.793 31.582C33.3711 31.1602 33.1484 30.6328 33.125 30ZM17.375 30C17.3984 29.3672 17.6211 28.8398 18.043 28.418C18.4648 27.9961 18.9922 27.7734 19.625 27.75C20.2578 27.7734 20.7852 27.9961 21.207 28.418C21.6289 28.8398 21.8516 29.3672 21.875 30C21.8516 30.6328 21.6289 31.1602 21.207 31.582C20.7852 32.0039 20.2578 32.2266 19.625 32.25C18.9922 32.2266 18.4648 32.0039 18.043 31.582C17.6211 31.1602 17.3984 30.6328 17.375 30ZM20.4688 33.375C21.1719 33.3984 21.7695 33.6562 22.2617 34.1484C22.7305 34.6406 22.9766 35.2617 23 36.0117C22.9531 36.457 22.707 36.7031 22.2617 36.75H16.9883C16.543 36.7031 16.2969 36.457 16.25 36.0117C16.2734 35.2617 16.5195 34.6406 16.9883 34.1484C17.4805 33.6562 18.0781 33.3984 18.7812 33.375H20.4688Z" fill="white"/>
</svg>
