<svg width="55" height="55" viewBox="0 0 55 55" fill="none" xmlns="http://www.w3.org/2000/svg">
<rect width="55" height="55" rx="27.5" fill="#213ED7"/>
<path d="M32.8086 34.9219C33.0195 35.0156 33.125 35.1797 33.125 35.4141V36.1875C33.1016 36.5391 32.9141 36.7266 32.5625 36.75H22.4375C22.0859 36.7266 21.8984 36.5391 21.875 36.1875V35.4141C21.875 35.1797 21.9805 35.0156 22.1914 34.9219L23 34.5V33.9375C23.0234 33.5859 23.2109 33.3984 23.5625 33.375H31.4375C31.7891 33.3984 31.9766 33.5859 32 33.9375V34.5L32.8086 34.9219ZM23.4922 27.0469C23.1875 26.8828 23.0234 26.6367 23 26.3086V22.8633C23 22.6992 23.0586 22.5586 23.1758 22.4414L23.3867 22.1953L23.0352 21.4922C23.0117 21.4219 23 21.3633 23 21.3164C23.0234 21.1289 23.1289 21.0234 23.3164 21H26.5508C27.9336 21.0469 29.082 21.5273 29.9961 22.4414C30.9102 23.3555 31.3906 24.5039 31.4375 25.8867V31.125C31.3672 31.5938 31.1797 31.9688 30.875 32.25H24.125C23.6797 31.7578 23.457 31.2188 23.457 30.6328C23.457 29.7422 23.8789 29.0508 24.7227 28.5586L26.3398 27.7148C26.7148 27.5273 26.9141 27.2227 26.9375 26.8008V25.5L26.4453 25.6758C26.2812 25.7695 26.1758 25.9102 26.1289 26.0977L25.918 26.8711C25.8242 27.1055 25.6602 27.2695 25.4258 27.3633L25.1094 27.5039C25.0156 27.5273 24.9219 27.5391 24.8281 27.5391C24.7109 27.5391 24.5938 27.5156 24.4766 27.4688L23.4922 27.0469ZM24.6875 23.25C24.3359 23.2734 24.1484 23.4609 24.125 23.8125C24.1719 24.1641 24.3594 24.3516 24.6875 24.375C24.8047 24.375 24.9219 24.3281 25.0391 24.2344C25.1797 24.1406 25.25 24 25.25 23.8125C25.2266 23.4609 25.0391 23.2734 24.6875 23.25Z" fill="white"/>
</svg>
