<svg width="55" height="55" viewBox="0 0 55 55" fill="none" xmlns="http://www.w3.org/2000/svg">
<rect width="55" height="55" rx="27.5" fill="#213ED7"/>
<path d="M24.125 30C23.7969 30 23.5273 29.8945 23.3164 29.6836C23.1055 29.4727 23 29.2031 23 28.875V21C23 20.6719 23.1055 20.4023 23.3164 20.1914C23.5273 19.9805 23.7969 19.875 24.125 19.875V19.3125C24.1484 18.9609 24.3359 18.7734 24.6875 18.75H26.9375C27.2891 18.7734 27.4766 18.9609 27.5 19.3125V19.875C27.8281 19.875 28.0977 19.9805 28.3086 20.1914C28.5195 20.4023 28.625 20.6719 28.625 21V28.875C28.625 29.2031 28.5195 29.4727 28.3086 29.6836C28.0977 29.8945 27.8281 30 27.5 30H27.0781V30.5625C27.0547 30.9141 26.8672 31.1016 26.5156 31.125H25.1094C24.7578 31.1016 24.5703 30.9141 24.5469 30.5625V30H24.125ZM34.8125 34.5C35.2812 34.5234 35.6797 34.6875 36.0078 34.9922C36.3125 35.3203 36.4766 35.7188 36.5 36.1875C36.4766 36.5391 36.2891 36.7266 35.9375 36.75H19.0625C18.7109 36.7266 18.5234 36.5391 18.5 36.1875C18.5234 35.7188 18.6875 35.3203 18.9922 34.9922C19.3203 34.6875 19.7188 34.5234 20.1875 34.5H29.75C31.0156 34.4766 32.0703 34.0312 32.9141 33.1641C33.7812 32.3203 34.2266 31.2656 34.25 30C34.2266 28.7344 33.7812 27.6797 32.9141 26.8359C32.0703 25.9688 31.0156 25.5234 29.75 25.5V23.25C31.6484 23.2969 33.2422 23.9531 34.5312 25.2188C35.7969 26.5078 36.4531 28.1016 36.5 30C36.4531 31.7578 35.8789 33.2578 34.7773 34.5H34.8125ZM22.1562 33.375C21.9922 33.3516 21.8984 33.2578 21.875 33.0938V32.5312C21.8984 32.3672 21.9922 32.2734 22.1562 32.25H29.4688C29.6328 32.2734 29.7266 32.3672 29.75 32.5312V33.0938C29.7266 33.2578 29.6328 33.3516 29.4688 33.375H22.1562Z" fill="white"/>
</svg>
