<svg width="55" height="55" viewBox="0 0 55 55" fill="none" xmlns="http://www.w3.org/2000/svg">
<rect width="55" height="55" rx="27.5" fill="#213ED7"/>
<path d="M36.4648 18.75C36.793 18.75 37.0742 18.8555 37.3086 19.0664C37.5195 19.2773 37.625 19.5469 37.625 19.875C37.625 20.2031 37.5195 20.4727 37.3086 20.6836C37.0977 20.8945 36.8281 21 36.5 21V30C36.5 30.3281 36.3945 30.5977 36.1836 30.8086C35.9727 31.0195 35.7031 31.125 35.375 31.125H28.625V32.3555L31.2266 34.9922C31.4609 35.25 31.4609 35.5195 31.2266 35.8008L30.4531 36.5742C30.1719 36.8086 29.9023 36.8086 29.6445 36.5742L27.5 34.3945L25.3203 36.5742C25.0625 36.8086 24.793 36.8086 24.5117 36.5742L23.7383 35.8008C23.5039 35.5195 23.5039 35.25 23.7383 34.9922L26.375 32.3555V31.125H19.625C19.2969 31.125 19.0273 31.0195 18.8164 30.8086C18.6055 30.5977 18.5 30.3281 18.5 30L18.4648 20.9648C18.1602 20.9648 17.9023 20.8594 17.6914 20.6484C17.4805 20.4375 17.375 20.168 17.375 19.8398C17.375 19.5352 17.4805 19.2773 17.6914 19.0664C17.9023 18.8555 18.1602 18.75 18.4648 18.75H36.4648ZM34.25 28.875V21H20.75V28.875H34.25Z" fill="white"/>
</svg>
