<svg width="55" height="55" viewBox="0 0 55 55" fill="none" xmlns="http://www.w3.org/2000/svg">
<rect width="55" height="55" rx="27.5" fill="#213ED7"/>
<path d="M27.5 27.75C26.2344 27.7266 25.168 27.293 24.3008 26.4492C23.457 25.582 23.0234 24.5156 23 23.25C23.0234 21.9844 23.457 20.918 24.3008 20.0508C25.168 19.207 26.2344 18.7734 27.5 18.75C28.7656 18.7734 29.832 19.207 30.6992 20.0508C31.543 20.918 31.9766 21.9844 32 23.25C31.9766 24.5156 31.543 25.582 30.6992 26.4492C29.832 27.293 28.7656 27.7266 27.5 27.75ZM29.293 29.4375C31.0039 29.4844 32.4336 30.082 33.582 31.2305C34.7305 32.3789 35.3281 33.8086 35.375 35.5195C35.375 35.8711 35.2578 36.1641 35.0234 36.3984C34.7891 36.6328 34.4961 36.75 34.1445 36.75H20.8555C20.5039 36.75 20.2109 36.6328 19.9766 36.3984C19.7422 36.1641 19.625 35.8711 19.625 35.5195C19.6719 33.8086 20.2695 32.3789 21.418 31.2305C22.5664 30.082 23.9961 29.4844 25.707 29.4375H29.293Z" fill="white"/>
</svg>
